<svg width="280" height="36" viewBox="0 0 280 36" fill="none" xmlns="http://www.w3.org/2000/svg">
<g clip-path="url(#clip0)">
<path d="M13.0639 31.1876C14.7493 31.1876 16.1313 30.7201 17.2098 29.7878C18.2856 28.8529 18.8263 27.5164 18.8263 25.7729C18.8263 24.8379 18.6222 24.0074 18.2167 23.2759C17.8112 22.5444 17.2485 21.9229 16.5313 21.4087C15.8141 20.8944 14.9617 20.4984 13.9797 20.2179C12.9977 19.9374 11.9274 19.7972 10.7717 19.7972H6.55679V35.3923H0V1.9608C1.24681 1.74355 2.3557 1.5648 3.32391 1.42456C4.29212 1.28431 5.18033 1.1688 5.99407 1.0753C6.80505 0.981803 7.59396 0.918556 8.35804 0.888306C9.12213 0.858056 9.92759 0.841553 10.7689 0.841553C12.8598 0.841553 14.719 1.06706 16.3409 1.51805C17.9629 1.96905 19.3145 2.61529 20.3903 3.45679C21.4661 4.29828 22.2881 5.31028 22.8481 6.49277C23.4108 7.67526 23.6922 8.98424 23.6922 10.4142C23.6922 11.5665 23.3336 12.7105 22.6164 13.8462C21.8992 14.982 20.9613 15.9087 19.8055 16.6237L18.4484 17.2782L19.7586 17.6054C20.6027 17.9162 21.3889 18.3617 22.1226 18.9364C22.8563 19.5112 23.488 20.1739 24.0204 20.9219C24.55 21.6699 24.9638 22.4619 25.2617 23.3034C25.5569 24.1449 25.7058 24.9836 25.7058 25.8251C25.7058 27.0379 25.4327 28.2451 24.8866 29.4441C24.3404 30.6431 23.5515 31.7156 22.5226 32.6643C21.4909 33.6131 20.2441 34.3913 18.7766 34.9991C17.3091 35.6068 15.6541 35.9093 13.8115 35.9093C13.3729 35.9093 12.9757 35.901 12.6171 35.8873C12.2585 35.8708 11.875 35.8323 11.4696 35.7718C11.0641 35.7086 10.62 35.6233 10.1345 35.5161C9.65175 35.4061 9.0642 35.2741 8.37735 35.1201C8.56492 34.7158 8.79939 34.2786 9.08075 33.8138C9.36211 33.3463 9.69036 32.9201 10.0628 32.5296C10.4379 32.1418 10.8737 31.8228 11.373 31.5726C11.8778 31.3113 12.4405 31.1876 13.0639 31.1876ZM10.7717 15.4082C11.5826 15.4082 12.3633 15.2927 13.1136 15.059C13.8639 14.8252 14.5176 14.4925 15.0803 14.0552C15.6431 13.6207 16.0954 13.0982 16.4375 12.4905C16.7823 11.8827 16.9533 11.2062 16.9533 10.461C16.9533 9.9 16.8375 9.3335 16.603 8.756C16.3685 8.18126 16.0099 7.65876 15.5272 7.19126C15.0445 6.72377 14.41 6.33601 13.6294 6.02527C12.8488 5.71452 11.8971 5.55778 10.7717 5.55778C9.92759 5.55778 9.22695 5.57978 8.66423 5.62652C8.10151 5.67327 7.40087 5.75852 6.55679 5.88227V15.4055H10.7717V15.4082Z" fill="#004643"/>
<path d="M46.0796 20.5891C46.1734 19.8741 46.143 19.1893 45.9858 18.5348C45.8285 17.8803 45.572 17.3056 45.2134 16.8078C44.8548 16.3101 44.4024 15.9141 43.8563 15.6171C43.3101 15.3229 42.6784 15.1744 41.9585 15.1744C41.302 15.1744 40.6537 15.3146 40.0165 15.5951C39.3766 15.8756 38.7918 16.3183 38.2594 16.9261C37.727 17.5338 37.2995 18.3121 36.9712 19.2608C36.643 20.2096 36.4802 21.3536 36.4802 22.6928C36.4802 25.4015 37.0898 27.4943 38.3063 28.971C39.5228 30.4505 41.1172 31.1902 43.0839 31.1902C44.1763 31.1902 45.2465 31.0582 46.292 30.7943C47.3374 30.5303 48.5484 30.0875 49.9221 29.4633L51.5606 33.8055C49.8752 34.614 48.2891 35.1832 46.8078 35.5105C45.3238 35.8377 43.8508 36 42.3833 36C40.2289 36 38.378 35.6095 36.8333 34.8312C35.2886 34.053 34.0087 33.0492 32.9936 31.82C31.9785 30.5907 31.2282 29.1993 30.7455 27.6428C30.2627 26.0863 30.02 24.5133 30.02 22.9265C30.02 20.9961 30.34 19.2691 30.9799 17.7428C31.6199 16.2194 32.4943 14.9351 33.6032 13.8901C34.7121 12.8479 36.0141 12.0449 37.5146 11.4866C39.0125 10.9256 40.6041 10.6451 42.2922 10.6451C44.008 10.6451 45.5858 10.9889 47.023 11.6736C48.4601 12.3584 49.6131 13.3071 50.4875 14.5226C51.362 15.7353 51.8999 17.1928 52.104 18.8868C52.3053 20.5836 52.0654 22.4288 51.3785 24.4198H38.2649C38.6097 23.3308 39.1007 22.4205 39.7407 21.6891C40.3806 20.9576 41.1061 20.5918 41.9171 20.5918H46.0796V20.5891Z" fill="#004643"/>
<path d="M59.1931 15.8757H55.3065V12.188L59.1931 11.253V5.51102L65.3748 3.50354V26.1469C65.3748 27.7336 65.7086 28.9711 66.3816 29.8593C67.0519 30.7476 67.9346 31.1903 69.0269 31.1903C69.4628 31.1903 69.9703 31.1436 70.5496 31.0501C71.1261 30.9566 71.8212 30.7696 72.635 30.4891L73.9921 34.7378C72.806 35.1421 71.7661 35.4528 70.8779 35.6728C69.9896 35.8901 69.1538 36.0001 68.3732 36.0001C65.3775 36.0001 63.0963 35.1586 61.5351 33.4783C59.9738 31.7981 59.1931 29.3534 59.1931 26.1496V15.8757V15.8757ZM71.6502 15.8757C70.9634 15.8757 70.362 15.7272 69.8462 15.4329C69.3304 15.1387 68.8863 14.773 68.5111 14.3357C68.136 13.9012 67.8243 13.409 67.5733 12.8645C67.3222 12.32 67.1209 11.7837 66.9636 11.253H73.7549V15.8757H71.6502V15.8757Z" fill="#004643"/>
<path d="M80.4993 15.8757H76.6126V12.188L80.4993 11.253V5.51102L86.6809 3.50354V26.1469C86.6809 27.7336 87.0147 28.9711 87.6877 29.8593C88.358 30.7476 89.2407 31.1903 90.3331 31.1903C90.7689 31.1903 91.2765 31.1436 91.8557 31.0501C92.4322 30.9566 93.1274 30.7696 93.9411 30.4891L95.2983 34.7378C94.1121 35.1421 93.0722 35.4528 92.184 35.6728C91.2958 35.8901 90.46 36.0001 89.6793 36.0001C86.6837 36.0001 84.4025 35.1586 82.8412 33.4783C81.2799 31.7981 80.4993 29.3534 80.4993 26.1496V15.8757V15.8757ZM92.9563 15.8757C92.2695 15.8757 91.6682 15.7272 91.1523 15.4329C90.6365 15.1387 90.1924 14.773 89.8172 14.3357C89.4421 13.9012 89.1304 13.409 88.8794 12.8645C88.6284 12.32 88.427 11.7837 88.2698 11.253H95.061V15.8757H92.9563V15.8757Z" fill="#004643"/>
<path d="M115.107 20.5891C115.2 19.8741 115.17 19.1893 115.013 18.5348C114.856 17.8803 114.599 17.3056 114.24 16.8078C113.882 16.3101 113.429 15.9141 112.883 15.6171C112.337 15.3229 111.705 15.1744 110.985 15.1744C110.329 15.1744 109.681 15.3146 109.044 15.5951C108.404 15.8756 107.819 16.3183 107.286 16.9261C106.754 17.5338 106.326 18.3121 105.998 19.2608C105.67 20.2096 105.507 21.3536 105.507 22.6928C105.507 25.4015 106.117 27.4943 107.333 28.971C108.55 30.4505 110.144 31.1902 112.111 31.1902C113.203 31.1902 114.273 31.0582 115.319 30.7943C116.364 30.5303 117.575 30.0875 118.949 29.4633L120.588 33.8055C118.902 34.614 117.316 35.1832 115.835 35.5105C114.351 35.8377 112.878 36 111.41 36C109.256 36 107.405 35.6095 105.86 34.8312C104.316 34.053 103.036 33.0492 102.021 31.82C101.005 30.5907 100.255 29.1993 99.7724 27.6428C99.2897 26.0863 99.047 24.5133 99.047 22.9265C99.047 20.9961 99.3669 19.2691 100.007 17.7428C100.647 16.2194 101.521 14.9351 102.63 13.8901C103.739 12.8479 105.041 12.0449 106.542 11.4866C108.039 10.9256 109.631 10.6451 111.319 10.6451C113.035 10.6451 114.613 10.9889 116.05 11.6736C117.487 12.3584 118.64 13.3071 119.515 14.5226C120.389 15.7353 120.927 17.1928 121.131 18.8868C121.332 20.5836 121.092 22.4288 120.405 24.4198H107.292C107.637 23.3308 108.128 22.4205 108.768 21.6891C109.408 20.9576 110.133 20.5918 110.944 20.5918H115.107V20.5891Z" fill="#004643"/>
<path d="M130.656 11.2529C130.904 11.4701 131.177 11.8991 131.475 12.5371C131.77 13.1751 131.983 13.8984 132.107 14.7069L132.201 15.8289L132.669 14.7069C133.293 13.4639 134.112 12.4986 135.127 11.8111C136.142 11.1264 137.149 10.7854 138.148 10.7854C139.052 10.7854 140.068 10.9724 141.193 11.3464L140.443 16.6236C139.817 16.4366 139.295 16.3129 138.873 16.2496C138.451 16.1891 138.054 16.1561 137.679 16.1561C136.868 16.1561 136.148 16.3596 135.524 16.7639C134.898 17.1681 134.369 17.7208 133.933 18.4221C133.494 19.1233 133.16 19.9621 132.926 20.9438C132.692 21.9228 132.576 22.9898 132.576 24.1421V35.3922H126.441V17.1378C126.441 16.2661 126.386 15.3394 126.278 14.3604C126.168 13.3814 125.975 12.3446 125.693 11.2556H130.656V11.2529Z" fill="#004643"/>
<path d="M145.546 1.44641H165.964V6.25612H152.243V35.3894H145.546V1.44641ZM154.022 19.9345C154.177 19.4368 154.381 18.9088 154.632 18.3478C154.88 17.7868 155.195 17.2753 155.57 16.8078C155.945 16.3403 156.389 15.9608 156.905 15.6638C157.421 15.3668 158.019 15.2211 158.709 15.2211H164.375V19.9373H154.022V19.9345Z" fill="#004643"/>
<path d="M176.316 11.2529C176.564 11.4701 176.837 11.8991 177.135 12.5371C177.43 13.1751 177.643 13.8984 177.767 14.7069L177.861 15.8289L178.33 14.7069C178.953 13.4639 179.772 12.4986 180.788 11.8111C181.803 11.1264 182.809 10.7854 183.808 10.7854C184.713 10.7854 185.728 10.9724 186.853 11.3464L186.103 16.6236C185.477 16.4366 184.955 16.3129 184.533 16.2496C184.111 16.1891 183.714 16.1561 183.339 16.1561C182.528 16.1561 181.808 16.3596 181.185 16.7639C180.559 17.1681 180.029 17.7208 179.593 18.4221C179.155 19.1233 178.821 19.9621 178.586 20.9438C178.352 21.9228 178.236 22.9898 178.236 24.1421V35.3922H172.101V17.1378C172.101 16.2661 172.046 15.3394 171.938 14.3604C171.828 13.3814 171.635 12.3446 171.354 11.2556H176.316V11.2529Z" fill="#004643"/>
<path d="M190.037 4.24874C190.037 3.15975 190.403 2.23301 191.137 1.47126C191.871 0.709519 192.784 0.327271 193.876 0.327271C194.969 0.327271 195.882 0.709519 196.615 1.47126C197.349 2.23576 197.716 3.15975 197.716 4.24874C197.716 5.33774 197.349 6.24798 196.615 6.97947C195.882 7.71097 194.969 8.07672 193.876 8.07672C192.784 8.07672 191.871 7.71097 191.137 6.97947C190.403 6.25073 190.037 5.33774 190.037 4.24874ZM190.599 35.3895V11.2529H197.156V35.3895H190.599Z" fill="#004643"/>
<path d="M218.603 20.5891C218.697 19.8741 218.664 19.1893 218.509 18.5348C218.352 17.8803 218.095 17.3056 217.737 16.8078C217.378 16.3101 216.926 15.9141 216.38 15.6171C215.833 15.3229 215.202 15.1744 214.482 15.1744C213.825 15.1744 213.177 15.3146 212.54 15.5951C211.9 15.8756 211.315 16.3183 210.783 16.9261C210.25 17.5338 209.823 18.3121 209.494 19.2608C209.166 20.2096 209.003 21.3536 209.003 22.6928C209.003 25.4015 209.613 27.4943 210.83 28.971C212.046 30.4505 213.64 31.1902 215.607 31.1902C216.7 31.1902 217.77 31.0582 218.815 30.7943C219.861 30.5303 221.072 30.0875 222.445 29.4633L224.084 33.8055C222.398 34.614 220.815 35.1832 219.331 35.5105C217.847 35.8377 216.371 36 214.904 36C212.749 36 210.899 35.6095 209.354 34.8312C207.809 34.053 206.529 33.0492 205.514 31.82C204.499 30.5907 203.749 29.1993 203.266 27.6428C202.783 26.0863 202.54 24.5133 202.54 22.9265C202.54 20.9961 202.86 19.2691 203.5 17.7428C204.14 16.2194 205.015 14.9351 206.124 13.8901C207.233 12.8479 208.535 12.0449 210.035 11.4866C211.533 10.9256 213.125 10.6451 214.813 10.6451C216.528 10.6451 218.106 10.9889 219.543 11.6736C220.981 12.3584 222.136 13.3071 223.011 14.5226C223.882 15.7353 224.423 17.1928 224.627 18.8868C224.829 20.5836 224.586 22.4288 223.902 24.4198H210.788C211.133 23.3308 211.624 22.4205 212.264 21.6891C212.904 20.9576 213.629 20.5918 214.44 20.5918H218.603V20.5891Z" fill="#004643"/>
<path d="M234.009 11.2529C234.759 12.0944 235.255 12.9249 235.506 13.7499C235.755 14.5749 235.882 15.4549 235.882 16.3872V35.3895H229.325V17.1352C229.325 15.3312 229.074 13.3704 228.577 11.2529H234.009V11.2529ZM244.452 18.2544C244.452 17.4762 244.295 16.8382 243.983 16.3404C243.671 15.8427 243.109 15.5924 242.298 15.5924C241.986 15.5924 241.688 15.6309 241.407 15.7079C241.125 15.7849 240.767 15.8399 240.331 15.8702C239.956 15.9004 239.614 15.8234 239.299 15.6364C238.988 15.4494 238.698 15.2102 238.433 14.9132C238.168 14.6189 237.917 14.2834 237.686 13.9094C237.451 13.5354 237.225 13.1614 237.007 12.7902C238.568 11.9817 239.926 11.4207 241.081 11.11C242.237 10.7992 243.36 10.6425 244.452 10.6425C245.269 10.6425 246.071 10.7992 246.857 11.11C247.644 11.4207 248.341 11.8882 248.957 12.5097C249.569 13.1339 250.065 13.9094 250.441 14.8444C250.816 15.7794 251.006 16.8822 251.006 18.1582V35.3868H244.449V18.2544H244.452Z" fill="#004643"/>
<path d="M266.136 35.9972C264.451 35.9972 262.934 35.6782 261.593 35.0402C260.25 34.4022 259.127 33.5085 258.222 32.3563C257.317 31.204 256.622 29.8428 256.14 28.2725C255.654 26.7023 255.414 24.9973 255.414 23.1603C255.414 21.5104 255.695 19.9401 256.258 18.4441C256.818 16.9509 257.577 15.6419 258.528 14.5226C259.48 13.4034 260.581 12.5069 261.83 11.8387C263.077 11.1704 264.373 10.8349 265.717 10.8349C266.528 10.8349 267.317 10.8899 268.081 10.9972C268.845 11.1072 269.838 11.3327 271.054 11.6737C270.616 12.7627 270.116 13.6427 269.557 14.3109C268.994 14.9819 268.324 15.3449 267.543 15.4081C266.575 15.4714 265.764 15.7051 265.107 16.1094C264.451 16.5136 263.921 17.0499 263.516 17.7209C263.11 18.3919 262.812 19.1921 262.625 20.1244C262.437 21.0593 262.343 22.0686 262.343 23.1576C262.343 24.2466 262.454 25.2751 262.671 26.2376C262.889 27.2028 263.209 28.0526 263.631 28.7813C264.053 29.5128 264.575 30.0958 265.201 30.533C265.824 30.9703 266.528 31.1875 267.308 31.1875C269.024 31.1875 270.836 30.0985 272.743 27.9178V0H279.299V29.5073C279.299 30.379 279.354 31.3058 279.462 32.2848C279.572 33.2638 279.752 34.3005 280 35.3895H274.955C274.547 35.1722 274.207 34.8615 273.94 34.4545C273.672 34.0503 273.46 33.6295 273.302 33.195L273.068 32.1225L272.274 33.1483C271.057 34.2373 269.957 34.9852 268.972 35.3895C267.984 35.7937 267.041 35.9972 266.136 35.9972Z" fill="#004643"/>
</g>
<defs>
<clipPath id="clip0">
<rect width="280" height="36" fill="white"/>
</clipPath>
</defs>
</svg>
